<svg width="174" height="39" viewBox="0 0 174 39" fill="none" xmlns="http://www.w3.org/2000/svg">
<g id="Frame 82">
<g id="Group">
<g id="Group_2">
<path id="Vector" d="M16.043 26.8064C13.8667 25.998 11.6281 25.8737 9.57614 26.4333C8.14596 26.8064 6.77796 27.5526 5.53432 28.4853L4.66376 29.2315L4.41504 29.4802L4.97467 29.9777C5.03685 29.9777 5.03686 30.0399 5.09904 30.102C5.22341 30.2264 5.34778 30.2886 5.53432 30.4129L5.9074 30.6617L6.28049 30.3508C6.34268 30.2886 6.46704 30.1642 6.5914 30.102C7.71068 29.1693 8.95431 28.5475 10.2601 28.2366C11.939 27.8013 13.7423 27.8635 15.5456 28.5475C17.0379 29.1071 20.0849 29.7911 23.7536 28.2366L23.878 28.1744L24.0645 27.9879C24.0645 27.9257 24.1267 27.9257 24.1889 27.8635C24.4998 27.4904 24.8107 27.1173 25.0594 26.682L26.303 24.7544L24.3132 25.8737C21.3907 27.4904 18.7169 27.8013 16.043 26.8064Z" fill="#55B02E"/>
<path id="Vector_2" d="M7.52364 20.0906C9.20255 19.6553 11.0058 19.7175 12.8091 20.4015C14.7989 21.1477 19.8978 22.2048 25.6186 17.0437L26.5513 16.111L26.6135 16.0488L26.8622 15.8001L26.7378 15.4891C26.6756 15.2404 26.5513 14.9295 26.4269 14.6186L26.116 13.748L25.4942 14.3699C25.432 14.4942 25.3076 14.5564 25.1833 14.6808C22.4473 17.479 18.2189 20.3393 13.3687 18.5982C11.1924 17.7899 8.95382 17.6655 6.90182 18.2251C4.91201 18.7848 3.17091 19.8419 1.55418 21.3342V21.2721L0.621456 22.267C0.621456 22.3291 0.559286 22.3292 0.497104 22.3913L0.310547 22.5779L0.372732 22.8266C0.434914 23.1375 0.559274 23.4484 0.621456 23.7593L0.994551 24.7542L1.61637 23.9459C1.67855 23.8215 1.80291 23.7593 1.86509 23.635C3.17091 22.4535 4.97419 20.7746 7.52364 20.0906Z" fill="#55B02E"/>
<path id="Vector_3" d="M1.49238 18.9715C2.92256 17.4792 4.53928 16.5464 6.28037 16.049C7.95928 15.6137 9.76255 15.6759 11.5658 16.3599C17.1622 18.4119 22.0124 15.0541 24.1266 13.2508L24.9349 12.4424L25.2458 12.1937L24.9971 11.8206C24.8106 11.6341 24.6862 11.3854 24.4997 11.1366L24.1266 10.6392L23.6913 11.0744C23.6291 11.1366 23.5047 11.261 23.4426 11.3232C20.8309 13.8104 16.7891 16.3599 12.1876 14.6188C10.0113 13.8104 7.77273 13.6861 5.72074 14.2457C4.41492 14.6188 3.17128 15.2406 1.92764 16.049L0.621818 17.1061C0.497455 17.2304 0.435273 17.2926 0.310909 17.417L0.186557 17.5413V17.7279C0.124375 18.1632 0.124367 18.5984 0.0621856 18.9715L0 20.5261L1.0571 19.4068C1.18146 19.2824 1.30583 19.0959 1.49238 18.9715Z" fill="#55B02E"/>
<path id="Vector_4" d="M17.8466 31.0349L17.7222 31.408L17.8466 31.0349C17.66 30.9727 17.5357 30.9105 17.3491 30.8483C15.1728 30.04 12.9342 29.9156 10.8822 30.4753C10.4469 30.5996 10.0117 30.724 9.57639 30.9105L8.08401 31.5945L7.71094 31.7811L8.95457 32.2163C9.32766 32.3407 9.70075 32.4651 10.0738 32.5894L10.2604 32.6516L10.4469 32.5894C10.6335 32.5273 10.82 32.4029 11.0066 32.4029C11.1309 32.4029 11.2553 32.3407 11.3797 32.2785C12.872 31.9054 14.4887 31.9054 16.2298 32.4651C16.4164 32.5272 16.5408 32.5894 16.7273 32.6516L17.0382 32.776L17.2247 32.7138C17.66 32.5894 18.1575 32.4651 18.5306 32.2785L20.2717 31.6567L18.4684 31.2214C18.2818 31.1592 18.0331 31.0971 17.8466 31.0349Z" fill="#55B02E"/>
<path id="Vector_5" d="M27.3597 18.1631L26.427 19.0958C26.3027 19.2202 26.1783 19.3445 26.0539 19.4689C23.5045 21.894 19.4005 24.5056 14.799 22.7645C12.6227 21.9562 10.3841 21.8318 8.33213 22.3915C6.40449 22.9511 4.66338 23.946 3.10884 25.4384L2.30048 26.3089L2.05176 26.6198L2.30048 26.9929C2.48703 27.2416 2.6114 27.4282 2.73576 27.6769L3.10884 28.2365L3.54412 27.6769C3.6063 27.6147 3.73066 27.4904 3.79284 27.4282C5.2852 25.8114 6.90193 24.8165 8.76739 24.3191C10.4463 23.8838 12.2496 23.946 14.0528 24.63C15.6074 25.1896 17.2241 25.3762 18.8408 25.1896C21.7012 24.8787 24.5616 23.262 26.6758 21.4587C26.8001 21.3344 26.9245 21.2722 27.0488 21.1478L27.2354 20.9613V20.7747C27.2354 20.4016 27.2976 19.9664 27.2976 19.5933L27.3597 18.1631Z" fill="#55B02E"/>
<path id="Vector_6" d="M3.73045 12.4423L3.54391 12.0692L3.73045 12.4423C4.10354 12.2557 4.53883 12.1313 4.91192 12.007C6.59083 11.5717 8.3941 11.6339 10.1974 12.3179C11.3788 12.7532 12.5603 12.9397 13.8661 12.9397C16.4777 12.9397 19.0894 12.007 21.5145 10.2037L22.4472 9.45752L22.7581 9.20879L22.1985 8.77351C22.0119 8.58697 21.7632 8.40043 21.5145 8.27607L21.1414 8.02734L20.8305 8.27607C20.7061 8.33825 20.6439 8.46261 20.5195 8.52479C17.2239 11.0121 13.9283 11.6961 10.8192 10.5146C8.58065 9.70625 6.34209 9.51971 4.10355 10.2037C3.917 10.2659 3.73045 10.3281 3.48173 10.3902L3.35738 10.4524L3.17082 10.639C3.17082 10.7012 3.10865 10.7012 3.04647 10.7633C2.79774 11.1364 2.48682 11.4473 2.23809 11.8204L1.05664 13.6237L2.98428 12.6288C3.29519 12.6288 3.54391 12.5044 3.73045 12.4423Z" fill="#55B02E"/>
<path id="Vector_7" d="M8.82967 8.21393L9.01621 8.27611C9.82457 8.58702 11.0682 8.89793 12.6228 8.89793C14.2395 8.89793 15.794 8.52484 17.3486 7.90302L19.2762 6.97029L17.9704 6.53503C17.5973 6.41067 17.2242 6.2863 16.7889 6.22412H16.6024L16.4159 6.28629C16.2293 6.34847 16.0428 6.47285 15.8562 6.53503C13.9908 7.21903 12.1253 7.34339 10.322 6.84594C10.1355 6.78376 9.94894 6.72156 9.7624 6.65938L9.57586 6.5972L9.3893 6.65938C9.01621 6.78375 8.64313 6.90812 8.27004 7.09466L6.83984 7.71648L8.33222 8.15174C8.45659 8.08956 8.64312 8.15175 8.82967 8.21393Z" fill="#55B02E"/>
</g>
</g>
<text id="finance.ai" fill="white" xml:space="preserve" style="white-space: pre" font-family="Mulish" font-size="28" font-weight="bold" letter-spacing="0em"><tspan x="37.6201" y="30.07">finance.ai</tspan></text>
</g>
</svg>
